<svg id="Layer_1" data-name="Layer 1" xmlns="http://www.w3.org/2000/svg" viewBox="0 0 133.88 10"><title>logo</title><path d="M3.57,16.5V6.5h2v2h2v2h2v-2h2v-2h2v10h-2v-6h-2v2h-2v-2h-2v6Z" transform="translate(-3.57 -6.5)" style="fill:#fff"/><path d="M15.55,16.5v-2h4v-6h-4v-2h10v2h-4v6h4v2Z" transform="translate(-3.57 -6.5)" style="fill:#fff"/><path d="M27.54,16.5V6.5h2v2h2v2h2v2h2v-6h2v10h-2v-2h-2v-2h-2v-2h-2v6Z" transform="translate(-3.57 -6.5)" style="fill:#fff"/><path d="M39.52,16.5v-2h4v-6h-4v-2h10v2h-4v6h4v2Z" transform="translate(-3.57 -6.5)" style="fill:#fff"/><path d="M55.51,16.5v-2h-2v-2h-2v-6h2v6h2v2h2v-2h2v-6h2v6h-2v2h-2v2Z" transform="translate(-3.57 -6.5)" style="fill:#fff"/><path d="M63.49,16.5v-6h2v-2h2v-2h2v2h2v2h2v6h-2v-4h-6v4Zm6-6v-2h-2v2Z" transform="translate(-3.57 -6.5)" style="fill:#fff"/><path d="M75.48,16.5v-2h2v-2h2v-2h-2v-2h-2v-2h2v2h2v2h2v-2h2v-2h2v2h-2v2h-2v2h2v2h2v2h-2v-2h-2v-2h-2v2h-2v2Z" transform="translate(-3.57 -6.5)" style="fill:#fff"/><path d="M87.48,16.5v-2h2v-2h2v-2h-2v-2h-2v-2h2v2h2v2h2v-2h2v-2h2v2h-2v2h-2v2h2v2h2v2h-2v-2h-2v-2h-2v2h-2v2Z" transform="translate(-3.57 -6.5)" style="fill:#fff"/><path d="M99.48,16.5v-2h2v2Z" transform="translate(-3.57 -6.5)" style="fill:#fff"/><path d="M105.48,16.5v-2h-2v-6h2v-2h6v2h2v2h-2v-2h-6v6h6v-2h2v2h-2v2Z" transform="translate(-3.57 -6.5)" style="fill:#fff"/><path d="M117.46,16.5v-2h-2v-6h2v-2h6v2h2v6h-2v2Zm6-2v-6h-6v6Z" transform="translate(-3.57 -6.5)" style="fill:#fff"/><path d="M127.45,16.5V6.5h2v2h2v2h2v-2h2v-2h2v10h-2v-6h-2v2h-2v-2h-2v6Z" transform="translate(-3.57 -6.5)" style="fill:#fff"/></svg>