<?xml version="1.0" encoding="utf-8"?>
<!-- Generator: Adobe Illustrator 21.0.0, SVG Export Plug-In . SVG Version: 6.00 Build 0)  -->
<svg version="1.1" id="Layer_1" xmlns="http://www.w3.org/2000/svg" xmlns:xlink="http://www.w3.org/1999/xlink" x="0px" y="0px"
	 viewBox="0 0 1468.3 2087.3" style="enable-background:new 0 0 1468.3 2087.3;" xml:space="preserve">
<style type="text/css">
	.st0{fill:#FFFFFF;}
	.st1{fill:#FEFEFE;}
</style>
<g>
	<g>
		<path class="st0" d="M572.1,1799.8c0.3,1.6-0.3,2.9-1,4.3c-25.5,51-58.9,95.7-103.9,131.1c-22.7,17.9-47.6,32.2-76,39.1
			c-53,12.9-98.2-1.8-134.2-41.8c-27.9-31-41.8-68.3-40.4-110.5c0.6-17.4,5-34,13.1-49.5c5-9.4,11.5-17.6,20.1-23.9
			c25.3-18.7,48.6-1.9,53.6,21.3c2.2,10.2,0.2,19.5-4.4,29c-3.5,7.4-9.4,8.8-15.9,9c-7.1,0.3-11.2-4.7-14-10.6
			c-2.5-5.1-2-10.6-1.8-16.5c-4.1,0.7-6.4,3.4-8.6,5.9c-7.4,8.4-10.7,18.5-12.3,29.3c-3.3,22.4,2.5,43.2,12.9,62.8
			c17.5,32.9,44.3,53.7,81.2,60.1c22.8,4,44.7-0.2,65.9-9.1c29.6-12.4,54.2-31.8,76.3-54.6c24-24.8,44.1-52.4,59.5-83.2
			c6-12,11-24.5,17.3-36.4c1.8-3.3,0.1-5.7-1.2-8.4c-10.3-20.5-20.5-41.1-30.8-61.6c-8.5-17-17.6-33.6-25.1-51
			c-3.2-7.4-6.9-8.9-14.1-8.7c-17.2,0.5-34.5,0.1-51.7,0.2c-3.3,0-6.5-0.2-9.6-1.4c-6.3-2.5-10.8-9.2-10.6-15.8
			c0.2-7.1,5.1-13.5,11.9-15.6c2.6-0.8,5.4-1,8.1-1c45.2,0,90.5,0,135.7,0c2.8,0,5.5,0.2,8.2,0.9c7.2,2.1,12.3,8.8,12.3,16.1
			c0,7.1-4.8,13.4-11.7,15.8c-2.9,1-5.9,1-8.9,1c-12,0-23.9,0-37.3,0c15,30,29.5,59.1,44,88.2c2.8-0.7,3-3,3.8-4.6
			c43.3-86.1,86.6-172.2,130-258.2c1.8-3.5,2.6-6.4,0.5-10.4c-60-119-119.9-238.1-179.8-357.2c-0.2-0.4-0.5-0.9-0.9-1.5
			c-2.9,0.6-4.2,3.2-5.9,5.1c-57.8,65-115.5,130.1-173.2,195.2c-29.2,32.9-58.4,65.8-87.6,98.7c-1.8,2.1-3.6,4.2-5.8,5.9
			c-6.4,5.1-15.3,4.7-21.4-0.7c-6-5.4-7.5-14.2-3.2-21.1c1.6-2.5,3.7-4.7,5.7-7c88.2-99.5,176.5-199,264.7-298.5
			c3.3-3.7,8.7-6.8,8.9-11.5c0.1-4.2-3.5-8.6-5.6-12.8C341.3,701.8,173.5,368.2,5.8,34.5C3.1,29.2,0,24.1,0,17.7
			C0,7.7,6.4,0.7,16.4,0.1c2.2-0.1,4.5,0,6.7,0c474,0,947.9,0,1421.9,0c1.3,0,2.5,0,3.7,0c15.6,0.2,23.4,12,17.4,26.6
			c-0.6,1.4-1.2,2.7-1.9,4.1c-169.5,337.2-339.1,674.4-508.6,1011.6c-3.8,7.5-4.2,5.3,1.8,12c90.1,101.6,180.1,203.1,270.2,304.6
			c1.8,2.1,3.7,4.1,5.2,6.4c4.2,6.9,2.7,15.8-3.3,21.1c-6,5.3-15,5.7-21.4,0.5c-2.3-1.9-4.2-4.2-6.2-6.5
			c-86.4-97.4-172.8-194.8-259.3-292.3c-1.9-2.2-4-4.3-6.5-6.9c-1.3,2.6-2.3,4.5-3.3,6.5c-59,117.3-117.9,234.6-177.1,351.9
			c-2.1,4.3-2.2,7.4-0.1,11.7c43.4,86,86.7,172.1,129.9,258.2c1,2,2.1,3.9,3.7,6.8c15.1-30.2,29.9-59.7,44.8-89.6
			c-2.3-1.3-4.3-0.9-6.1-0.9c-13,0-26,0.1-39-0.1c-8.8-0.1-14.8-4.5-17.2-11.9c-2.8-8.8,2.1-18.1,10.9-20.9c2.9-0.9,5.9-1.1,8.9-1.1
			c45,0,90,0,135,0c1.2,0,2.5-0.1,3.7,0.1c9.8,0.9,16.8,7.9,16.8,16.9c0,9.2-7.4,16.6-17.5,16.9c-9,0.3-18,0-27,0.1
			c-4.5,0-9.6-1.2-13.3,0.5c-3.5,1.6-3.2,7.3-5.1,11c-21,41.7-41.7,83.5-62.8,125.2c-3.2,6.3-3.5,11-0.5,17.8
			c17,39.1,42.1,72.4,72.1,102.1c18.2,18.1,38.6,33.3,62,44.2c16.4,7.7,33.5,12.8,51.8,13.4c33,1.1,60.8-10.9,83.1-34.6
			c20.9-22.2,32.7-48.8,32.9-79.8c0-10.6-2.5-20.8-7.3-30.3c-2.9-5.8-6.6-11.1-12.7-14.1c-0.5-0.3-1.2-0.8-1.7-0.1
			c-0.5,0.6-0.2,1.2,0.3,1.7c-0.1,5.2-0.2,10.5-2.6,15.3c-4.5,9.2-12.1,11.6-21.8,8.2c-4.6-1.6-6.2-4.9-8.1-8.5c-8-15.8-6.5-31,4-45
			c8.8-11.7,22.5-15.2,36.1-9.6c8.6,3.5,15.3,9.4,21,16.4c11.1,13.5,17.1,29.3,19.8,46.3c7,43.4-5.1,82.1-30.5,117
			c-20.4,27.9-47.7,45.8-81.6,53.2c-25.3,5.6-50.1,2.6-74.4-5.9c-29.2-10.3-54.4-27.1-77.3-47.6c-33.1-29.6-59.5-64.5-80.9-103.4
			c-1.8-3.3-3.6-6.5-5.4-9.8c-0.1-0.1-0.4-0.1-1.2-0.3c-1.2,2.2-2.5,4.4-3.7,6.8c-42.5,85-85,170.1-127.4,255.1
			c-6.3,12.6-16.1,18-28.3,15.7c-6.8-1.3-12-4.9-15.7-10.6c-2.2-3.3-4-6.9-5.8-10.5c-44.5-89-89-178.1-133.5-267.2
			c-1.2-2.4-2.5-4.9-3.7-7.3c-3.8,1.2-2.5,6.9-6.9,7.3c-0.8-1-2-2.1-2.9-1.1C569.4,1798.7,571.2,1799.2,572.1,1799.8z M1376.4,131.3
			c-3.6-0.2-4.7,3.1-6.5,5.1c-192.6,217-385.1,434.1-577.6,651.1c-11.8,13.3-23.5,26.5-35.7,40.3c57.2,64.5,114.3,128.8,171.8,193.7
			c1.7-3.2,2.8-5.4,3.9-7.7c146.9-292.1,293.7-584.1,440.6-876.2c1.1-2.2,1.8-4.7,3.6-6.4c-0.2-0.3-0.6-0.7-0.6-1
			c0.1-0.5,0.6-0.6,0.8,0C1376.9,130.5,1376.6,130.9,1376.4,131.3z M52.5,34C280.2,290.8,507,546.5,734.1,802.4
			C961.5,546.1,1188.2,290.5,1415.7,34C960.9,34,507.6,34,52.5,34z M539.3,1020.7c2.4-0.7,3.4-2.5,4.7-4
			c54.4-61.3,108.8-122.7,163.2-184c0.8-0.9,1.6-1.9,2.5-2.8c1.5-1.6,1.4-3-0.1-4.5c-0.9-0.9-1.7-1.8-2.5-2.8
			c-34-38.3-68-76.7-102-115C465.7,550.6,326.4,393.5,187,236.4c-28.9-32.5-57.7-65.1-86.6-97.6c-1.5-1.7-2.5-4.2-6.8-4.4
			C242.5,430.4,390.9,725.6,539.3,1020.7z M734.2,853.3c-1.3,1.2-1.8,1.7-2.3,2.2c-57.4,64.7-114.8,129.4-172.2,194.1
			c-3.8,4.3-3.8,4.3-0.7,10.3c57.3,114,114.6,227.9,172,341.9c0.8,1.7,1.1,3.9,3.7,4.8c0.8-1.5,1.7-2.9,2.4-4.4
			c57.4-114.2,114.9-228.3,172.2-342.5c3.4-6.8,3.5-5.1-1.6-10.8c-50.2-56.7-100.5-113.3-150.8-170
			C749.5,870.5,742.1,862.1,734.2,853.3z M734.7,1484.2c-2.8,1.9-3.2,4.2-4.2,6.1c-43.1,85.6-86.1,171.3-129.3,256.8
			c-2.3,4.6-2,8,0.2,12.4c43.3,86.4,86.4,172.8,129.6,259.2c1.1,2.1,1.6,4.7,4.1,6.2c1.2-2.3,2.3-4.5,3.4-6.7
			c42.8-85.7,85.7-171.5,128.6-257.2c2.5-4.9,2.6-8.7,0.1-13.7c-28.9-57-57.6-114.1-86.3-171.2
			C765.6,1545.7,750.2,1515.2,734.7,1484.2z M94.8,133.1c-0.2-0.4-0.4-0.7-0.5-1c-0.2,0.2-0.5,0.4-0.5,0.5c0.1,0.3,0.3,0.7,0.5,1
			C94.4,133.4,94.6,133.3,94.8,133.1z M568.4,1795.9c-0.2,0.2-0.4,0.3-0.5,0.4c0.2,0.2,0.3,0.4,0.5,0.4c0.2,0,0.3-0.2,0.5-0.4
			C568.7,1796.2,568.6,1796,568.4,1795.9z"/>
		<path class="st1" d="M2695.6,560.5c0.2-0.4,0.5-0.8,0.4-1.1c-0.2-0.6-0.7-0.6-0.8,0c-0.1,0.3,0.4,0.7,0.6,1
			C2695.8,560.4,2695.6,560.5,2695.6,560.5z"/>
		<path class="st1" d="M1414,562.4c-0.2,0.2-0.4,0.3-0.5,0.5c-0.2-0.3-0.4-0.6-0.5-1c0-0.1,0.3-0.3,0.5-0.5
			C1413.6,561.7,1413.8,562,1414,562.4z"/>
		<path class="st0" d="M2520.6,2212c-0.5-0.5-0.8-1.1-0.3-1.7c0.5-0.6,1.2-0.2,1.7,0.1C2521.5,2210.9,2521.1,2211.4,2520.6,2212z"/>
	</g>
</g>
</svg>
